# xmcd
#
# Track frame offsets:
#	150
#	16769
#	34584
#	54104
#	71923
#	88863
#	106545
#	120940
#	135684
#	150636
#	165453
#	180275
#	198765
#	217832
#	234651
#	252148
#	269767
#	283576
#	305466
#	322668
#	344793
#
# Disc length: 4783
#
# Revision: 4
# Processed by: cddbd v1.5.1PL0 Copyright (c) Steve Scherf et al.
# Submitted via: tcd 2.0b
# Normalized: r3:TDELIM( - )
#
DISCID=1312ad15
DTITLE=Reggae
DYEAR=1900
DGENRE=
TTITLE0=Aswad - Shine
TTITLE1=Sasha - I Feel Lonely
TTITLE2=Laid Back - Sunshine Reggae
TTITLE3=Saint and Campbell - Stop The Train
TTITLE4=Donna Marie - Think Twice
TTITLE5=Pato Banton feat. Au and Robin Campbell - Baby Come Back
TTITLE6=Au and Frazier - Uptown Top Ranking
TTITLE7=King Kurlee - Red River
TTITLE8=Dawn Penn - You Don't Love Me
TTITLE9=Chance Wayne and Dr. Delay - Ok Fred
TTITLE10=Bob Marley and Waylers - Iron Lion Zion
TTITLE11=Sanchez - Unchained Melody
TTITLE12=Big Mountain - Baby I Love Your Way
TTITLE13=Chaka Demus and Puers - Teas Me
TTITLE14=Shinehead - Jamaican In New York
TTITLE15=Matrix (feat. John Show) - Take A Piece Of Your Heart
TTITLE16=Boney M - African Moon
TTITLE17=Kussondulola - Kussondulola
TTITLE18=Inner Circle - Sweat (A La La Long)
TTITLE19=Sasha - Lost In Your Blue Eyes
TTITLE20=Aswad - You're No Good
EXTD=
EXTT0=
EXTT1=
EXTT2=
EXTT3=
EXTT4=
EXTT5=
EXTT6=
EXTT7=
EXTT8=
EXTT9=
EXTT10=
EXTT11=
EXTT12=
EXTT13=
EXTT14=
EXTT15=
EXTT16=
EXTT17=
EXTT18=
EXTT19=
EXTT20=
PLAYORDER=
